<svg width="593" height="255" viewBox="0 0 593 255" fill="none" xmlns="http://www.w3.org/2000/svg">
<path d="M592.7 144.9C592.7 205.5 543.6 254.6 483 254.6C422.4 254.6 373.3 205.5 373.3 144.9H393.5C393.5 194.3 433.6 234.4 483 234.4C532.4 234.4 572.5 194.3 572.5 144.9C572.5 95.5 532.4 55.4 483 55.4V35.2C543.5 35.2 592.7 84.3 592.7 144.9Z" fill="#FEFEFE"/>
<path d="M0 117.3V4.40001C0 3.30001 0.599997 2.70001 1.7 2.70001H14.3C15.4 2.70001 16 3.30001 16 4.40001V104.5C16 104.9 16.2 105.2 16.7 105.2H74C75.1 105.2 75.7 105.8 75.7 106.9V117.4C75.7 118.5 75.1 119.1 74 119.1H1.8C0.499995 118.9 0 118.4 0 117.3Z" fill="#FEFEFE"/>
<path d="M161.5 81.4C161.5 82.5 160.9 83.1 159.8 83.1H106.9C106.5 83.1 106.2 83.3 106.2 83.8C106.2 87.6 106.5 90.4 107.2 92.4C108.4 96.8 110.9 100.3 114.6 102.8C118.3 105.3 123 106.5 128.6 106.5C136.8 106.5 143.1 103.1 147.5 96.4C148.1 95.3 148.8 95.1 149.7 95.9L159.2 102.2C160 102.9 160.1 103.6 159.7 104.4C156.6 109.4 152.2 113.3 146.5 116.2C140.8 119.1 134.4 120.5 127.2 120.5C119.1 120.5 112.3 118.7 106.8 115.2C101.3 111.7 97.0999 106.6 94.3999 100.1C91.6999 93.6 90.3999 85.7 90.3999 76.4C90.3999 68.3 90.9999 62.2 92.1999 58C94.1999 50.4 98.1999 44.3 104.1 39.9C110.1 35.5 117.3 33.3 125.8 33.3C137 33.3 145.3 36.1 150.9 41.7C156.4 47.3 159.8 55.5 161 66.3C161.4 70.7 161.6 75.8 161.5 81.4ZM114 50.5C110.9 52.9 108.8 56.1 107.7 60C106.9 62.4 106.4 65.5 106.2 69.3C106.2 69.7 106.4 70 106.9 70H144.9C145.3 70 145.6 69.8 145.6 69.3C145.4 65.6 145 62.9 144.6 61.2C143.5 56.9 141.3 53.4 138 50.8C134.7 48.2 130.7 46.9 125.8 46.9C121 46.9 117.1 48.1 114 50.5Z" fill="#FEFEFE"/>
<path d="M240.8 41.2C246.1 46.5 248.8 53.6 248.8 62.5V117.3C248.8 118.4 248.2 119 247.1 119H234.5C233.4 119 232.8 118.4 232.8 117.3V65.7C232.8 60.2 231.2 55.7 228 52.3C224.8 48.9 220.5 47.2 215.2 47.2C210 47.2 205.7 48.9 202.4 52.3C199.1 55.7 197.4 60.2 197.4 65.6V117.4C197.4 118.5 196.8 119.1 195.7 119.1H183.2C182.1 119.1 181.5 118.5 181.5 117.4V36.2C181.5 35.1 182.1 34.5 183.2 34.5H195.8C196.9 34.5 197.5 35.1 197.5 36.2V42.2C197.5 42.4 197.6 42.6 197.7 42.7C197.9 42.8 198 42.8 198.1 42.5C202.9 36.4 209.9 33.4 219.2 33.4C228.3 33.3 235.5 35.9 240.8 41.2Z" fill="#FEFEFE"/>
<path d="M283.7 116.9C278.7 114.9 274.8 112.2 272 108.7C269.2 105.2 267.9 101.4 267.9 97.2V95.4C267.9 94.3 268.5 93.7 269.6 93.7H281.5C282.6 93.7 283.2 94.3 283.2 95.4V96.2C283.2 99.3 284.9 102 288.3 104.3C291.7 106.6 296 107.8 301.2 107.8C306.2 107.8 310.2 106.7 313.3 104.6C316.4 102.4 317.9 99.7 317.9 96.4C317.9 93.2 316.5 90.8 313.6 89.2C310.7 87.6 306.1 85.9 299.7 84.1C293.4 82.3 288.1 80.5 283.9 78.7C279.6 76.9 276 74.3 273.1 70.9C270.2 67.5 268.7 63.2 268.7 57.9C268.7 50.5 271.6 44.6 277.4 40.2C283.2 35.8 290.9 33.6 300.6 33.6C307 33.6 312.7 34.6 317.6 36.7C322.5 38.7 326.3 41.6 329 45.2C331.7 48.9 333 52.9 333 57.5V58C333 59.1 332.4 59.7 331.3 59.7H319.7C318.6 59.7 318 59.1 318 58V57.5C318 54.3 316.4 51.6 313.3 49.5C310.1 47.3 305.9 46.3 300.4 46.3C295.5 46.3 291.6 47.2 288.5 49.1C285.5 51 283.9 53.5 283.9 56.7C283.9 59.9 285.4 62.3 288.3 64C291.2 65.7 296 67.4 302.5 69.3C308.9 71.1 314.3 72.8 318.5 74.5C322.8 76.2 326.4 78.8 329.4 82.1C332.4 85.5 333.9 89.9 333.9 95.3C333.9 102.8 330.9 108.8 325 113.2C319.1 117.6 311.2 119.8 301.3 119.8C294.6 119.9 288.7 118.9 283.7 116.9Z" fill="#FEFEFE"/>
<path d="M421.2 81.4C421.2 82.5 420.6 83.1 419.5 83.1H366.6C366.2 83.1 365.9 83.3 365.9 83.8C365.9 87.6 366.2 90.4 366.9 92.4C368.1 96.8 370.6 100.3 374.3 102.8C378 105.3 382.7 106.5 388.3 106.5C396.5 106.5 402.8 103.1 407.2 96.4C407.8 95.3 408.5 95.1 409.4 95.9L418.9 102.2C419.7 102.9 419.8 103.6 419.4 104.4C416.3 109.4 411.9 113.3 406.2 116.2C400.5 119.1 394.1 120.5 386.9 120.5C378.8 120.5 372 118.7 366.5 115.2C361 111.7 356.8 106.6 354.1 100.1C351.4 93.6 350.1 85.7 350.1 76.4C350.1 68.3 350.7 62.2 351.9 58C353.9 50.4 357.9 44.3 363.8 39.9C369.8 35.5 377 33.3 385.5 33.3C396.7 33.3 405 36.1 410.6 41.7C416.1 47.3 419.5 55.5 420.7 66.3C421.2 70.7 421.3 75.8 421.2 81.4ZM373.7 50.5C370.6 52.9 368.5 56.1 367.4 60C366.6 62.4 366.1 65.5 365.9 69.3C365.9 69.7 366.1 70 366.6 70H404.6C405 70 405.3 69.8 405.3 69.3C405.1 65.6 404.7 62.9 404.3 61.2C403.2 56.9 401 53.4 397.7 50.8C394.4 48.2 390.4 46.9 385.5 46.9C380.8 46.9 376.8 48.1 373.7 50.5Z" fill="#FEFEFE"/>
<path d="M443.3 18.2C441.3 16.2 440.3 13.7 440.3 10.6C440.3 7.49999 441.3 5 443.3 3C445.3 1 447.8 0 450.9 0C454 0 456.5 1 458.5 3C460.5 5 461.5 7.49999 461.5 10.6C461.5 13.7 460.5 16.2 458.5 18.2C456.5 20.2 454 21.2 450.9 21.2C447.8 21.2 445.3 20.2 443.3 18.2ZM442.6 117.1V36.1C442.6 35 443.2 34.4 444.3 34.4H456.9C458 34.4 458.6 35 458.6 36.1V117.1C458.6 118.2 458 118.8 456.9 118.8H444.3C443.2 118.8 442.6 118.2 442.6 117.1Z" fill="#FEFEFE"/>
</svg>
