<svg width="289" height="289" viewBox="0 0 289 289" fill="none" xmlns="http://www.w3.org/2000/svg">
<path d="M263.349 289H25.6509C11.5429 289 0 277.457 0 263.349V25.6509C0 11.5429 11.5429 0 25.6509 0H263.349C277.457 0 289 11.5429 289 25.6509V263.349C289 277.457 277.457 289 263.349 289Z" fill="#008D36"/>
<path d="M289 167.119C289 192.947 281.091 218.348 266.342 240.12L256.936 220.055L247.531 232.222C248.6 227.74 230.003 191.88 220.811 179.5C214.613 170.962 178.06 127.631 148.134 127.631C118.422 127.631 100.252 151.538 99.8247 184.409C99.611 206.394 125.689 226.032 140.439 235.637C178.274 260.398 204.566 281.316 219.529 289H117.567C93.1982 280.889 69.8987 270.216 53.2256 257.409C21.8033 233.503 0 201.912 0 167.546C0 93.052 65.1961 32.005 144.5 32.005C223.804 31.3646 289 92.625 289 167.119Z" fill="#FCFBF6"/>
<path d="M270.46 169.577C270.46 190.263 273.24 206.044 266.184 240.164L256.777 220.118L247.37 232.274C248.439 227.796 229.838 191.969 220.644 179.6C217.223 175.122 188.574 138.868 160.352 130.764C130.633 122.234 106.687 125.859 94.9283 133.11C76.3274 144.626 70.5548 163.392 72.479 189.623C74.1894 214.361 99.632 229.288 114.384 239.098C152.227 263.836 204.609 281.11 219.575 289H117.591C93.2179 280.896 69.9134 270.234 53.2368 257.438C21.8078 233.554 0 201.992 0 167.658C0 93.2314 58.1543 51.0068 137.475 51.0068C216.796 50.367 270.033 95.1507 270.46 169.577Z" fill="#EFE7D0"/>
</svg>
